<svg width="197" height="276" xmlns="http://www.w3.org/2000/svg"><defs><linearGradient x1="-2.912%" y1="1913.752%" x2="102.931%" y2="1913.752%" id="linearGradient-1"><stop stop-color="#F1AAC2" offset="0%"/><stop stop-color="#E5638F" offset="100%"/></linearGradient><linearGradient x1="102.912%" y1="1911.469%" x2="-2.931%" y2="1911.469%" id="linearGradient-2"><stop stop-color="#F1AAC2" offset="0%"/><stop stop-color="#E5638F" offset="100%"/></linearGradient><linearGradient x1="27.36%" y1="18.787%" x2="90.184%" y2="90.34%" id="linearGradient-3"><stop stop-color="#FFCEAE" offset="0%"/><stop stop-color="#FFB280" offset="100%"/></linearGradient><linearGradient x1="-8.611%" y1="1770.326%" x2="108.556%" y2="1770.326%" id="linearGradient-4"><stop stop-color="#8A8A8A" offset="0%"/><stop stop-color="#F1F1F1" offset="28.57%"/><stop stop-color="#FFF" offset="100%"/></linearGradient><linearGradient x1="-8.633%" y1="1772.183%" x2="108.534%" y2="1772.183%" id="linearGradient-5"><stop stop-color="#8A8A8A" offset="0%"/><stop stop-color="#F1F1F1" offset="28.57%"/><stop stop-color="#FFF" offset="100%"/></linearGradient></defs><g id="Page-1" stroke="none" stroke-width="1" fill="none" fill-rule="evenodd"><g id="mole" transform="translate(3.323 2.017)"><path d="M94.768.91c-.244 0-.574.038-.84.042v.042c-14.625.17-50.181 3.266-63.26 35.136-6.52-8.665-.006.003-21.032-19.94 0 0-26.38 25.848 9.613 44.203C31.751 176.386 6.281 220.96 80.286 219.366c4.216-.091 8.845-.03 13.643.084h.126l2.183.042v-.084c4.802-.114 9.423-.175 13.643-.084 74.005 1.593 48.534-42.98 61.036-158.973 35.993-18.355 9.613-44.203 9.613-44.203-21.025 19.943-14.512 11.275-21.03 19.94C145.977 3.142 108.371.91 94.767.91Z" id="Shape" stroke="#000" stroke-width="5.81" fill="#333"/><path d="M166.444 194.155c0 42.528-31.198 77.005-69.682 77.005-38.485 0-69.683-34.477-69.683-77.005 0-42.529 31.198-77.005 69.683-77.005 38.484 0 69.682 34.476 69.682 77.005Z" id="Shape" stroke="#000" stroke-width="2.705" fill="#93939F"/><path d="M95.72 118.044c37.428 1.33 67.418 35.262 67.418 76.946 0 39.342-26.696 71.758-61.162 76.401 24.048-6.714 42.23-38.118 42.23-75.855 0-40.953-21.404-74.458-48.485-77.03v-.462Z" id="Shape" fill="#7F7F8D"/><path d="M95.54 116.904c-37.428 1.331-67.418 35.262-67.418 76.947 0 39.342 26.697 71.758 61.163 76.4-24.048-6.713-42.23-38.118-42.23-75.855 0-40.953 21.403-74.457 48.485-77.03v-.462Z" id="Shape" fill="#C1C1C8"/><path d="M69.513 29.448c-17.276 0-31.305 16.22-31.305 36.208 0 19.989 14.03 36.207 31.305 36.207 10.152 0 19.16-5.607 24.878-14.283 5.717 8.682 14.746 14.283 24.904 14.283 17.27 0 31.3-16.222 31.3-36.207 0-19.984-14.03-36.208-31.3-36.208-10.156 0-19.187 5.605-24.904 14.285-5.719-8.674-14.728-14.285-24.878-14.285Z" id="Shape" stroke="#000" stroke-width="5.484" fill="#FFF"/><path d="M134.866 32.948c.382 2.298.564 4.684.564 7.11 0 20.64-14.464 37.373-32.3 37.373-10.492 0-19.85-5.774-25.754-14.74-5.907 8.96-15.182 14.74-25.667 14.74-5.201 0-10.125-1.416-14.48-3.945 2.872 17.247 15.994 30.306 31.736 30.306 10.485 0 19.803-5.824 25.71-14.785 5.905 8.967 15.219 14.785 25.71 14.785 17.836 0 32.344-16.776 32.344-37.416 0-14.626-7.28-27.282-17.863-33.428Z" id="Shape" opacity=".337" fill="#A5A5A5"/><g id="Group" transform="translate(73.93 58.411)"><path d="M18.482 9.695c0 5.004-4.06 9.062-9.064 9.062A9.062 9.062 0 0 1 .356 9.695c0-5.006 4.06-9.064 9.062-9.064 5.006.002 9.064 4.058 9.064 9.064Z" id="Shape" stroke="#000" stroke-width="3.476" fill="#000"/><path d="M8.5 6.52A2.35 2.35 0 1 1 3.8 6.519 2.35 2.35 0 0 1 8.5 6.52Z" id="Shape" fill="#FFF"/></g><g id="Group" transform="translate(97.17 58.411)"><path d="M18.193 9.695a9.062 9.062 0 0 1-9.062 9.062 9.063 9.063 0 1 1 0-18.125 9.061 9.061 0 0 1 9.062 9.063Z" id="Shape" stroke="#000" stroke-width="3.476" fill="#000"/><path d="M8.21 6.52a2.349 2.349 0 1 1-4.699 0 2.35 2.35 0 0 1 2.35-2.35A2.35 2.35 0 0 1 8.21 6.52Z" id="Shape" fill="#FFF"/></g><path d="M7.263 25.594s-13.645 15.815 10.074 30.81c3.808-3.689 4.353-4.341 8.832-7.893v-2.855c-5.426-2.96-2.921-6.83-11.771-17.832l-7.135-2.23Z" id="Shape" stroke="#000" stroke-width="1.343" fill="url('#linearGradient-1')"/><path d="M184.264 26.297s13.645 15.815-10.074 30.81c-3.808-3.688-4.353-4.341-8.832-7.893V46.36c5.427-2.96 2.922-6.831 11.771-17.832l7.135-2.23Z" id="Shape" stroke="#000" stroke-width="1.343" fill="url('#linearGradient-2')"/><path d="M86.708 120.297c37.427 1.33 67.417 35.262 67.417 76.947 0 39.341-26.697 71.758-61.163 76.4 24.048-6.714 42.23-38.118 42.23-75.855 0-40.953-21.403-74.458-48.484-77.03v-.462Z" id="Shape" fill="#7F7F8D"/><path d="M95.053 91.069c-11.546 0-21.503 5.69-26.069 13.89-10.531 3.252-17.295 8.355-17.295 14.079 0 1.577.546 3.12 1.511 4.576a13.217 13.217 0 0 0-1.091 5.253c0 13.043 19.999 23.61 44.665 23.61s44.665-10.567 44.665-23.61c0-2.076-.518-4.093-1.47-6.011.67-1.226 1.05-2.512 1.05-3.818 0-6.268-8.12-11.778-20.401-14.946-4.768-7.734-14.428-13.023-25.565-13.023Z" id="Shape" stroke="#000" stroke-width="2.687" fill="url('#linearGradient-3')"/><path d="M111.403 98.953c0 8.711-7.062 15.773-15.773 15.773-8.71 0-15.773-7.062-15.773-15.773 0-8.71 7.062-15.773 15.773-15.773 8.711 0 15.773 7.062 15.773 15.773Z" id="Shape" fill="#000"/><path d="M76.485 132.95h17.878v27.243H76.485V132.95Z" id="Shape" stroke="#000" stroke-width="3.045" fill="url('#linearGradient-4')"/><path d="M94.581 132.444h17.878v27.243H94.581v-27.243Z" id="Shape" stroke="#000" stroke-width="3.045" fill="url('#linearGradient-5')"/><path d="M59.578 123.74c25.973 14.496 50.262 12.156 73.231-3.38" id="Shape" stroke="#000" stroke-width="5.373"/></g></g></svg>